<svg width="767" height="720" viewBox="0 0 767 720" fill="none" xmlns="http://www.w3.org/2000/svg">
<g style="mix-blend-mode:overlay">
<g style="mix-blend-mode:overlay">
<path d="M613.513 -111C721.881 337.582 -69.7013 78.0981 134.376 145.373C685.541 327.066 463.723 739.642 702.092 948.011" stroke="white" stroke-width="0.697114"/>
</g>
<g style="mix-blend-mode:overlay">
<path d="M111.441 701.829C108.676 784.579 72.2753 856.961 205.238 801.793C390.171 740.162 801.808 615.469 722.268 917.037" stroke="white" stroke-width="0.697114"/>
</g>
<g style="mix-blend-mode:overlay">
<path d="M116.98 676.578C117.377 772.123 55.5772 831.702 190.76 780.882C387.852 728.298 776.68 620.96 708.26 919.882" stroke="white" stroke-width="0.697114"/>
</g>
<g style="mix-blend-mode:overlay">
<path d="M122.761 651.013C126.369 759.341 39.1206 806.213 176.54 759.732C385.827 716.149 751.911 626.253 694.602 922.487" stroke="white" stroke-width="0.697114"/>
</g>
<g style="mix-blend-mode:overlay">
<path d="M128.749 625.165C135.615 746.265 22.871 780.525 162.543 738.375C384.06 703.748 727.468 631.377 681.259 924.883" stroke="white" stroke-width="0.697114"/>
</g>
<g style="mix-blend-mode:overlay">
<path d="M134.915 599.062C145.088 732.922 6.80018 754.667 148.743 716.839C382.522 691.121 703.323 636.361 668.203 927.098" stroke="white" stroke-width="0.697114"/>
</g>
<g style="mix-blend-mode:overlay">
<path d="M141.234 572.727C154.762 719.335 -9.11631 728.66 135.113 695.146C381.19 678.29 679.45 641.227 655.409 929.154" stroke="white" stroke-width="0.697114"/>
</g>
<g style="mix-blend-mode:overlay">
<path d="M147.687 546.178C164.617 705.522 -24.9003 702.525 121.633 673.316C380.042 665.276 655.829 645.993 642.857 931.07" stroke="white" stroke-width="0.697114"/>
</g>
<g style="mix-blend-mode:overlay">
<path d="M154.253 519.434C174.634 691.501 -40.5673 676.278 108.286 651.365C379.061 652.094 632.443 650.677 630.528 932.863" stroke="white" stroke-width="0.697114"/>
</g>
<g style="mix-blend-mode:overlay">
<path d="M160.918 492.509C184.798 677.286 -56.1353 649.934 95.0548 629.308C378.23 638.76 609.275 655.292 618.406 934.547" stroke="white" stroke-width="0.697114"/>
</g>
<g style="mix-blend-mode:overlay">
<path d="M167.668 465.414C195.095 662.89 -71.6173 623.506 81.9267 607.158C377.535 625.286 586.313 659.851 606.479 936.134" stroke="white" stroke-width="0.697114"/>
</g>
<g style="mix-blend-mode:overlay">
<path d="M175.874 439.481C206.896 649.642 -85.6403 598.323 70.2738 586.245C378.35 613.002 564.928 665.685 596.119 938.955" stroke="white" stroke-width="0.697114"/>
</g>
<g style="mix-blend-mode:overlay">
<path d="M190.827 419.74C225.491 642.574 -92.9153 579.417 65.3858 571.599C385.962 606.938 550.411 677.822 592.614 948.039" stroke="white" stroke-width="0.697114"/>
</g>
<g style="mix-blend-mode:overlay">
<path d="M205.946 399.91C244.3 635.403 -100.022 560.505 60.6826 556.938C393.793 600.813 536.181 689.981 589.386 957.104" stroke="white" stroke-width="0.697114"/>
</g>
<g style="mix-blend-mode:overlay">
<path d="M221.202 379.978C263.294 628.117 -106.989 541.576 56.1361 542.252C401.814 594.615 522.211 702.15 586.405 966.139" stroke="white" stroke-width="0.697114"/>
</g>
<g style="mix-blend-mode:overlay">
<path d="M236.574 359.938C282.452 620.711 -113.837 522.624 51.7248 527.532C410.003 588.337 508.479 714.322 583.651 975.137" stroke="white" stroke-width="0.697114"/>
</g>
<g style="mix-blend-mode:overlay">
<path d="M252.045 339.787C301.756 613.179 -120.582 503.645 47.4324 512.777C418.344 581.975 494.968 726.494 581.107 984.094" stroke="white" stroke-width="0.697114"/>
</g>
<g style="mix-blend-mode:overlay">
<path d="M267.602 319.523C321.195 605.521 -127.239 484.636 43.2454 497.983C426.823 575.527 481.666 738.663 578.759 993.007" stroke="white" stroke-width="0.697114"/>
</g>
<g style="mix-blend-mode:overlay">
<path d="M283.234 299.145C340.755 597.735 -133.817 465.598 39.1529 483.15C435.43 568.993 468.562 750.827 576.597 1001.88" stroke="white" stroke-width="0.697114"/>
</g>
<g style="mix-blend-mode:overlay">
<path d="M303.443 273.774C364.941 584.943 -135.814 441.651 39.6585 463.399C448.667 557.494 460.159 758.109 579.124 1005.82" stroke="white" stroke-width="0.697114"/>
</g>
<g style="mix-blend-mode:overlay">
<path d="M331.92 239.344C397.442 563.077 -129.54 408.729 48.452 434.664C470.224 536.962 460.147 756.44 590.031 1000.78" stroke="white" stroke-width="0.697114"/>
</g>
<g style="mix-blend-mode:overlay">
<path d="M360.345 204.808C429.938 541.092 -123.313 375.786 57.2138 405.898C491.782 516.352 460.207 754.774 600.997 995.695" stroke="white" stroke-width="0.697114"/>
</g>
<g style="mix-blend-mode:overlay">
<path d="M388.716 170.164C462.428 518.985 -117.136 342.819 65.9421 377.099C513.339 495.661 460.337 753.11 612.02 990.574" stroke="white" stroke-width="0.697114"/>
</g>
<g style="mix-blend-mode:overlay">
<path d="M417.029 135.412C494.908 496.754 -111.012 309.828 74.6343 348.265C534.891 474.888 460.534 751.445 623.098 985.412" stroke="white" stroke-width="0.697114"/>
</g>
<g style="mix-blend-mode:overlay">
<path d="M445.284 100.549C527.376 474.399 -104.941 276.81 83.2895 319.396C556.439 454.031 460.798 749.777 634.231 980.207" stroke="white" stroke-width="0.697114"/>
</g>
<g style="mix-blend-mode:overlay">
<path d="M473.479 65.5745C559.832 451.917 -98.9263 243.765 91.9058 290.49C577.979 433.089 461.128 748.105 645.415 974.958" stroke="white" stroke-width="0.697114"/>
</g>
<g style="mix-blend-mode:overlay">
<path d="M501.613 30.488C592.274 429.309 -92.9663 210.692 100.482 261.546C599.511 412.061 461.521 746.428 656.651 969.664" stroke="white" stroke-width="0.697114"/>
</g>
<g style="mix-blend-mode:overlay">
<path d="M529.683 -4.71198C624.7 406.572 -87.0643 177.589 109.017 232.564C621.034 390.945 461.977 744.744 667.937 964.324" stroke="white" stroke-width="0.697114"/>
</g>
<g style="mix-blend-mode:overlay">
<path d="M557.69 -40.025C657.11 383.707 -81.2193 144.458 117.511 203.542C642.546 369.743 462.496 743.054 679.272 958.936" stroke="white" stroke-width="0.697114"/>
</g>
<g style="mix-blend-mode:overlay">
<path d="M585.632 -75.452C689.502 360.713 -75.4343 111.296 125.962 174.481C664.047 348.452 463.076 741.356 690.655 953.501" stroke="white" stroke-width="0.697114"/>
</g>
</g>
</svg>
